<svg version="1.1" xmlns="http://www.w3.org/2000/svg" viewBox="0 0 697.428589303996 264" width="2092.285767911988" height="792">
  <!-- svg-source:excalidraw -->
  
  <defs>
    <style class="style-fonts">
      @font-face {
        font-family: "Virgil";
        src: url("https://excalidraw.com/Virgil.woff2");
      }
      @font-face {
        font-family: "Cascadia";
        src: url("https://excalidraw.com/Cascadia.woff2");
      }
    </style>
  </defs>
  <rect x="0" y="0" width="697.428589303996" height="264" fill="#ffffff"></rect><g stroke-linecap="round"><g transform="translate(172 156) rotate(0 152.78162436997047 -0.2714127370249457)"><path d="M0.95 -1.13 C51.96 -1.04, 254.65 -0.01, 305.58 0.1 M-0.02 0.9 C50.85 0.71, 253.4 -0.88, 304.41 -1.44" stroke="#000000" stroke-width="1" fill="none"></path></g></g><mask></mask><g stroke-linecap="round"><g transform="translate(173 216) rotate(0 150.99258225146218 0.05802000080350922)"><path d="M0.57 -0.96 C51.01 -1.16, 252.24 -0.91, 302.57 -0.63 M-0.58 1.15 C49.74 1.05, 251.48 0.98, 301.92 0.57" stroke="#000000" stroke-width="1" fill="none"></path></g></g><mask></mask><g stroke-linecap="round"><g transform="translate(172 172.17647058823525) rotate(0 151.14074132069948 0.05740070397018826)"><path d="M0.5 -0.06 C50.84 0.05, 251.47 0.29, 301.79 0.11" stroke="#000000" stroke-width="1.5" fill="none" stroke-dasharray="8 9"></path></g></g><mask></mask><g stroke-linecap="round"><g transform="translate(175 196) rotate(0 148.57646450176833 0.3139448542920178)"><path d="M1.18 0.83 C50.64 0.89, 246.71 -0.33, 295.98 -0.2" stroke="#000000" stroke-width="1.5" fill="none" stroke-dasharray="8 9"></path></g></g><mask></mask><g stroke-linecap="round"><g transform="translate(614 108) rotate(0 -61.09255998548582 30.690018465453747)"><path d="M0.26 0.37 C-6.53 8.94, -20.76 40.29, -41.1 50.4 C-61.45 60.52, -108.41 59.15, -121.79 61.05 M-1.06 -0.49 C-7.9 7.81, -21.35 38.1, -41.58 48.49 C-61.81 58.88, -109.24 59.49, -122.45 61.87" stroke="#000000" stroke-width="1" fill="none"></path></g><g transform="translate(614 108) rotate(0 -61.09255998548582 30.690018465453747)"><path d="M-94.83 50.31 C-102.19 52.75, -111.75 56.94, -122.8 60.44 M-94.65 49.61 C-104.8 52.96, -114.06 58.09, -122.6 62.28" stroke="#000000" stroke-width="1" fill="none"></path></g><g transform="translate(614 108) rotate(0 -61.09255998548582 30.690018465453747)"><path d="M-92.76 70.72 C-100.5 67.65, -110.62 66.32, -122.8 60.44 M-92.58 70.03 C-103.48 66.07, -113.48 63.9, -122.6 62.28" stroke="#000000" stroke-width="1" fill="none"></path></g></g><mask></mask><g stroke-linecap="round"><g transform="translate(497 196) rotate(0 94.95672922872438 -65.93985303817229)"><path d="M0.62 0.79 C30.85 0.65, 154.71 23.73, 181.63 -0.28 C208.55 -24.28, 165.42 -119.59, 162.12 -143.26 M-0.52 0.16 C29.54 0.15, 153.68 24.78, 180.74 1.09 C207.79 -22.61, 164.87 -117.75, 161.82 -142" stroke="#000000" stroke-width="1" fill="none"></path></g><g transform="translate(497 196) rotate(0 94.95672922872438 -65.93985303817229)"><path d="M180.71 -117.51 C173.08 -123.93, 167.81 -132.17, 163.27 -141.42 M179.87 -118.04 C174.85 -123.55, 170.44 -128.93, 162.67 -141.29" stroke="#000000" stroke-width="1" fill="none"></path></g><g transform="translate(497 196) rotate(0 94.95672922872438 -65.93985303817229)"><path d="M160.97 -111.9 C159.65 -120.23, 160.73 -130.27, 163.27 -141.42 M160.13 -112.43 C159.72 -119.07, 159.93 -125.75, 162.67 -141.29" stroke="#000000" stroke-width="1" fill="none"></path></g></g><mask></mask><g transform="translate(601 45) rotate(0 27.33333396911621 12.5)"><text x="0" y="0" font-family="Virgil, Segoe UI Emoji" font-size="20px" fill="#000000" text-anchor="start" style="white-space: pre;" direction="ltr" dominant-baseline="text-before-edge">fd[0]</text></g><g transform="translate(603 78) rotate(0 23.148147583007812 12.5)"><text x="0" y="0" font-family="Virgil, Segoe UI Emoji" font-size="20px" fill="#000000" text-anchor="start" style="white-space: pre;" direction="ltr" dominant-baseline="text-before-edge">fd[1]</text></g><g stroke-linecap="round"><g transform="translate(163.63397599743405 171.64705882352942) rotate(0 -38.00898397313381 -47.040058260335144)"><path d="M3.27 1.37 C-7.3 -9.37, -46.61 -46.44, -60.24 -62.93 C-73.87 -79.42, -75.38 -91.87, -78.51 -97.55 M2.29 3.47 C-8.46 -7.07, -47.22 -45.25, -60.81 -61.91 C-74.41 -78.58, -76.25 -90.88, -79.29 -96.55" stroke="#000000" stroke-width="1" fill="none"></path></g><g transform="translate(163.63397599743405 171.64705882352942) rotate(0 -38.00898397313381 -47.040058260335144)"><path d="M-67.79 -80.85 C-72.59 -87.39, -76.83 -93.65, -79.39 -97.67 M-66.66 -81.46 C-70.08 -86.88, -74.56 -90.77, -80.12 -96.76" stroke="#000000" stroke-width="1" fill="none"></path></g><g transform="translate(163.63397599743405 171.64705882352942) rotate(0 -38.00898397313381 -47.040058260335144)"><path d="M-80.2 -75.83 C-80.34 -84.33, -79.96 -92.47, -79.39 -97.67 M-79.07 -76.44 C-78.35 -83.64, -78.69 -89.2, -80.12 -96.76" stroke="#000000" stroke-width="1" fill="none"></path></g></g><mask></mask><g transform="translate(25 86) rotate(0 23.148147583007812 12.5)"><text x="0" y="0" font-family="Virgil, Segoe UI Emoji" font-size="20px" fill="#000000" text-anchor="start" style="white-space: pre;" direction="ltr" dominant-baseline="text-before-edge">fd[1]</text></g><g stroke-linecap="round"><g transform="translate(24.882352941176464 111.64705882352939) rotate(0 71.53397917725584 44.554159328024014)"><path d="M-0.27 0.62 C4.75 12.33, 6.67 54.85, 30.61 69.62 C54.55 84.38, 124.63 86.02, 143.34 89.21 M1.78 -0.1 C6.59 11.35, 6.07 53.43, 29.55 68 C53.04 82.58, 123.79 83.63, 142.69 87.32" stroke="#000000" stroke-width="1" fill="none"></path></g><g transform="translate(24.882352941176464 111.64705882352939) rotate(0 71.53397917725584 44.554159328024014)"><path d="M114.6 94.16 C125.12 92.51, 134.83 89.29, 143.42 85.98 M113.69 95.33 C122.19 91.44, 131.37 89.43, 142.56 87.29" stroke="#000000" stroke-width="1" fill="none"></path></g><g transform="translate(24.882352941176464 111.64705882352939) rotate(0 71.53397917725584 44.554159328024014)"><path d="M116.79 73.75 C126.46 79.03, 135.42 82.74, 143.42 85.98 M115.89 74.93 C123.61 77.49, 132.09 81.95, 142.56 87.29" stroke="#000000" stroke-width="1" fill="none"></path></g></g><mask></mask><g transform="translate(24 54) rotate(0 27.33333396911621 12.5)"><text x="0" y="0" font-family="Virgil, Segoe UI Emoji" font-size="20px" fill="#000000" text-anchor="start" style="white-space: pre;" direction="ltr" dominant-baseline="text-before-edge">fd[0]</text></g><g transform="translate(10 12) rotate(0 31.66666603088379 12.5)"><text x="0" y="0" font-family="Virgil, Segoe UI Emoji" font-size="20px" fill="#000000" text-anchor="start" style="white-space: pre;" direction="ltr" dominant-baseline="text-before-edge">parent</text></g><g transform="translate(611 10) rotate(0 20.462963104248047 12.5)"><text x="0" y="0" font-family="Virgil, Segoe UI Emoji" font-size="20px" fill="#000000" text-anchor="start" style="white-space: pre;" direction="ltr" dominant-baseline="text-before-edge">child</text></g><g transform="translate(295 120) rotate(0 17.5 12.5)"><text x="0" y="0" font-family="Virgil, Segoe UI Emoji" font-size="20px" fill="#000000" text-anchor="start" style="white-space: pre;" direction="ltr" dominant-baseline="text-before-edge">pipe</text></g><g transform="translate(298 229) rotate(0 15.61111068725586 12.5)"><text x="0" y="0" font-family="Virgil, Segoe UI Emoji" font-size="20px" fill="#000000" text-anchor="start" style="white-space: pre;" direction="ltr" dominant-baseline="text-before-edge">buf</text></g><g transform="translate(264.0000000000002 181.25000000000006) rotate(0 46.75925827026367 12.5)"><text x="0" y="0" font-family="Virgil, Segoe UI Emoji" font-size="20px" fill="#000000" text-anchor="start" style="white-space: pre;" direction="ltr" dominant-baseline="text-before-edge">parmsg: a</text></g><g transform="translate(269.2941176470588 160.07352941176475) rotate(0 41.425926208496094 12.5)"><text x="0" y="0" font-family="Virgil, Segoe UI Emoji" font-size="20px" fill="#000000" text-anchor="start" style="white-space: pre;" direction="ltr" dominant-baseline="text-before-edge">chimsg: b</text></g></svg>